<svg width="1995" height="822" viewBox="0 0 1995 822" fill="none" xmlns="http://www.w3.org/2000/svg">
<rect x="366" y="197" width="100" height="240" fill="#84C225"/>
<rect x="126" y="197" width="100" height="204" fill="#84C225"/>
<rect x="6" y="197" width="100" height="280" fill="#44916C"/>
<rect x="246" y="197" width="100" height="337" fill="#44916C"/>
<path d="M760.73 275.047C760.73 290.633 755.223 303.934 744.207 314.949C733.309 325.848 720.125 331.297 704.656 331.297H633.992V401.785C633.992 405.184 632.703 408.406 630.125 411.453C627.547 414.617 624.676 416.199 621.512 416.199C619.402 416.199 617.117 415.496 614.656 414.09C608.914 411.512 606.043 407.41 606.043 401.785V233.387C606.043 221.316 610.086 211.238 618.172 203.152C626.258 194.949 636.336 190.848 648.406 190.848H704.656C720.125 190.848 733.309 196.355 744.207 207.371C755.223 218.27 760.73 231.512 760.73 247.098V275.047ZM732.605 275.047V247.098C732.605 239.363 729.852 232.742 724.344 227.234C718.836 221.727 712.273 218.973 704.656 218.973H648.406C638.797 218.973 633.992 223.777 633.992 233.387V303.172H704.656C712.273 303.172 718.836 300.418 724.344 294.91C729.852 289.402 732.605 282.781 732.605 275.047ZM912.605 319.695C912.605 328.836 908.035 333.406 898.895 333.406C893.152 333.406 888.875 330.77 886.062 325.496C877.625 330.77 868.25 333.406 857.938 333.406H828.406C812.938 333.406 799.695 327.957 788.68 317.059C777.781 306.043 772.332 292.801 772.332 277.332V249.207C772.332 233.738 777.781 220.496 788.68 209.48C799.695 198.465 812.938 192.957 828.406 192.957H857.938C868.25 192.957 877.625 195.652 886.062 201.043C888.875 195.652 893.152 192.957 898.895 192.957C908.035 192.957 912.605 197.527 912.605 206.668V319.695ZM884.656 286.648V240.594C883.602 238.484 882.605 236.316 881.668 234.09C875.926 225.418 868.016 221.082 857.938 221.082H828.406C820.672 221.082 814.051 223.836 808.543 229.344C803.035 234.852 800.281 241.473 800.281 249.207V277.332C800.281 284.949 803.035 291.512 808.543 297.02C814.051 302.527 820.672 305.281 828.406 305.281H857.938C868.25 305.281 875.691 301.473 880.262 293.855L884.656 286.648ZM1078.89 389.656C1078.89 401.375 1074.73 411.336 1066.41 419.539C1058.21 427.859 1048.25 432.02 1036.53 432.02H980.281C964.812 432.02 951.57 426.512 940.555 415.496C929.656 404.598 924.207 391.414 924.207 375.945C924.207 366.336 928.953 361.531 938.445 361.531C947.586 361.531 952.156 366.336 952.156 375.945C952.156 383.68 954.91 390.301 960.418 395.809C965.926 401.316 972.547 404.07 980.281 404.07H1036.53C1046.02 404.07 1050.77 399.266 1050.77 389.656V333.406H980.281C964.812 333.406 951.57 327.957 940.555 317.059C929.656 306.043 924.207 292.801 924.207 277.332V206.668C924.207 197.527 928.953 192.957 938.445 192.957C947.586 192.957 952.156 197.527 952.156 206.668V277.332C952.156 284.949 954.91 291.512 960.418 297.02C965.926 302.527 972.547 305.281 980.281 305.281H1050.77V206.668C1050.77 197.527 1055.34 192.957 1064.48 192.957C1074.09 192.957 1078.89 197.527 1078.89 206.668V389.656ZM1245.18 319.695C1245.18 328.836 1240.38 333.406 1230.77 333.406C1221.63 333.406 1217.06 328.836 1217.06 319.695V249.207C1217.06 241.473 1214.3 234.852 1208.8 229.344C1203.29 223.836 1196.73 221.082 1189.11 221.082H1118.45V319.695C1118.45 328.836 1113.88 333.406 1104.73 333.406C1095.24 333.406 1090.5 328.836 1090.5 319.695V122.469C1090.5 116.961 1093.37 112.859 1099.11 110.164C1101.69 108.992 1103.68 108.406 1105.09 108.406C1108.72 108.406 1111.82 109.871 1114.4 112.801C1117.1 115.613 1118.45 118.836 1118.45 122.469L1118.09 192.605L1189.11 192.957C1204.58 193.074 1217.76 198.582 1228.66 209.48C1239.68 220.379 1245.18 233.621 1245.18 249.207V319.695ZM1397.06 277.332C1397.06 292.918 1391.61 306.16 1380.71 317.059C1369.81 327.957 1356.57 333.406 1340.98 333.406H1312.86C1297.39 333.406 1284.15 327.957 1273.13 317.059C1262.23 306.043 1256.79 292.801 1256.79 277.332V206.668C1256.79 197.527 1261.53 192.957 1271.02 192.957C1280.16 192.957 1284.73 197.527 1284.73 206.668V277.332C1284.73 284.949 1287.49 291.512 1293 297.02C1298.5 302.527 1305.12 305.281 1312.86 305.281H1340.98C1348.72 305.281 1355.34 302.527 1360.85 297.02C1366.36 291.512 1369.11 284.949 1369.11 277.332V206.668C1369.11 197.527 1373.86 192.957 1383.35 192.957C1392.49 192.957 1397.06 197.527 1397.06 206.668V277.332ZM1563.35 291.746C1563.35 303.582 1559.25 313.484 1551.04 321.453C1542.84 329.422 1532.82 333.406 1520.98 333.406H1464.73C1449.27 333.406 1436.02 327.957 1425.01 317.059C1414.11 306.043 1408.66 292.801 1408.66 277.332V249.207C1408.66 233.621 1414.11 220.379 1425.01 209.48C1435.91 198.582 1449.15 193.074 1464.73 192.957L1535.22 192.605V122.469C1535.22 118.367 1536.92 115.027 1540.32 112.449C1543.02 109.754 1545.77 108.406 1548.58 108.406C1549.99 108.406 1552.04 108.992 1554.73 110.164C1560.48 112.859 1563.35 116.961 1563.35 122.469V291.746ZM1535.22 291.746V221.082H1464.73C1457 221.082 1450.38 223.836 1444.87 229.344C1439.36 234.852 1436.61 241.473 1436.61 249.207V277.332C1436.61 284.949 1439.36 291.512 1444.87 297.02C1450.38 302.527 1457 305.281 1464.73 305.281H1520.98C1530.48 305.281 1535.22 300.77 1535.22 291.746ZM1729.64 291.746C1729.64 303.582 1725.54 313.484 1717.33 321.453C1709.13 329.422 1699.11 333.406 1687.27 333.406H1631.02C1615.55 333.406 1602.31 327.957 1591.3 317.059C1580.4 306.043 1574.95 292.801 1574.95 277.332V249.207C1574.95 233.621 1580.4 220.379 1591.3 209.48C1602.2 198.582 1615.44 193.074 1631.02 192.957L1701.51 192.605V122.469C1701.51 118.367 1703.21 115.027 1706.61 112.449C1709.3 109.754 1712.06 108.406 1714.87 108.406C1716.28 108.406 1718.33 108.992 1721.02 110.164C1726.77 112.859 1729.64 116.961 1729.64 122.469V291.746ZM1701.51 291.746V221.082H1631.02C1623.29 221.082 1616.67 223.836 1611.16 229.344C1605.65 234.852 1602.9 241.473 1602.9 249.207V277.332C1602.9 284.949 1605.65 291.512 1611.16 297.02C1616.67 302.527 1623.29 305.281 1631.02 305.281H1687.27C1696.77 305.281 1701.51 300.77 1701.51 291.746ZM1769.19 317.586C1769.19 326.727 1764.62 331.297 1755.48 331.297C1745.98 331.297 1741.24 326.727 1741.24 317.586V121.062C1741.24 111.453 1745.98 106.648 1755.48 106.648C1764.62 106.648 1769.19 111.453 1769.19 121.062V317.586ZM1934.25 263.621C1934.25 272.762 1929.68 277.332 1920.54 277.332H1808.91C1808.91 284.949 1811.67 291.512 1817.18 297.02C1822.68 302.527 1829.3 305.281 1837.04 305.281H1878C1883.5 305.281 1888.31 304.109 1892.41 301.766C1892.76 302.703 1894.11 303.172 1896.45 303.172C1897.16 303.172 1898.74 302.938 1901.2 302.469C1903.89 301.414 1906.06 300.887 1907.7 300.887C1908.88 300.887 1909.81 301.18 1910.52 301.766C1914.38 304.93 1916.32 308.387 1916.32 312.137C1916.32 317.41 1913.15 321.863 1906.82 325.496C1897.8 330.77 1888.19 333.406 1878 333.406H1837.04C1821.57 333.406 1808.33 327.957 1797.31 317.059C1786.41 306.043 1780.96 292.801 1780.96 277.332V249.207C1780.96 233.738 1786.41 220.496 1797.31 209.48C1808.33 198.465 1821.57 192.957 1837.04 192.957H1879.58C1894.58 192.957 1907.53 198.641 1918.43 210.008C1928.97 220.906 1934.25 233.973 1934.25 249.207V263.621ZM1906.12 249.207C1906.12 241.238 1903.43 234.559 1898.04 229.168C1892.64 223.777 1885.96 221.082 1878 221.082H1837.04C1829.3 221.082 1822.68 223.836 1817.18 229.344C1811.67 234.852 1808.91 241.473 1808.91 249.207H1906.12Z" fill="#44916C"/>
<path d="M1958.5 111.844C1952.63 111.844 1946.9 113.583 1942.02 116.842C1937.15 120.1 1933.35 124.732 1931.1 130.151C1928.86 135.57 1928.27 141.533 1929.41 147.286C1930.56 153.038 1933.38 158.323 1937.53 162.47C1941.68 166.618 1946.96 169.442 1952.71 170.586C1958.47 171.731 1964.43 171.143 1969.85 168.899C1975.27 166.654 1979.9 162.853 1983.16 157.976C1986.42 153.099 1988.16 147.365 1988.16 141.5C1988.14 133.639 1985.01 126.105 1979.45 120.547C1973.9 114.988 1966.36 111.859 1958.5 111.844V111.844ZM1958.5 166.594C1953.54 166.594 1948.69 165.122 1944.56 162.365C1940.43 159.607 1937.22 155.688 1935.32 151.103C1933.42 146.518 1932.92 141.472 1933.89 136.604C1934.86 131.737 1937.25 127.265 1940.76 123.756C1944.27 120.247 1948.74 117.857 1953.6 116.888C1958.47 115.92 1963.52 116.417 1968.1 118.316C1972.69 120.216 1976.61 123.432 1979.36 127.559C1982.12 131.685 1983.59 136.537 1983.59 141.5C1983.59 148.153 1980.94 154.531 1976.24 159.236C1971.53 163.94 1965.15 166.586 1958.5 166.594V166.594ZM1969.91 136.938C1969.9 134.52 1968.93 132.203 1967.23 130.493C1965.52 128.784 1963.2 127.82 1960.78 127.812H1951.66C1951.05 127.812 1950.47 128.053 1950.04 128.481C1949.62 128.908 1949.38 129.489 1949.38 130.094V152.906C1949.38 153.511 1949.62 154.092 1950.04 154.519C1950.47 154.947 1951.05 155.188 1951.66 155.188C1952.26 155.188 1952.84 154.947 1953.27 154.519C1953.7 154.092 1953.94 153.511 1953.94 152.906V146.062H1960.04L1965.74 154.218C1965.96 154.516 1966.24 154.759 1966.57 154.928C1966.9 155.096 1967.26 155.185 1967.63 155.188C1968.09 155.182 1968.55 155.043 1968.94 154.788C1969.43 154.438 1969.77 153.906 1969.88 153.308C1969.98 152.711 1969.85 152.095 1969.51 151.595L1964.92 145.064C1966.42 144.302 1967.68 143.139 1968.56 141.705C1969.44 140.27 1969.9 138.621 1969.91 136.938V136.938ZM1960.78 141.5H1953.94V132.375H1960.78C1961.99 132.375 1963.15 132.856 1964.01 133.711C1964.86 134.567 1965.34 135.727 1965.34 136.938C1965.34 138.148 1964.86 139.308 1964.01 140.164C1963.15 141.019 1961.99 141.5 1960.78 141.5Z" fill="#44916C"/>
<path d="M46.3184 680.067C50.1367 680.067 53.7891 680.482 57.2754 681.312C60.7617 682.087 63.75 683.194 66.2402 684.633V695.341C62.7539 694.013 59.5443 693.017 56.6113 692.353C53.6784 691.688 50.6901 691.356 47.6465 691.356C44.4368 691.356 41.2549 691.882 38.1006 692.934C34.9463 693.985 32.124 695.728 29.6338 698.163C27.1436 700.543 25.1237 703.725 23.5742 707.709C22.0801 711.638 21.333 716.535 21.333 722.401C21.333 726.662 21.8864 730.591 22.9932 734.188C24.1553 737.785 25.8431 740.912 28.0566 743.568C30.3255 746.169 33.1478 748.217 36.5234 749.711C39.8991 751.15 43.8005 751.869 48.2275 751.869C51.4372 751.869 54.6745 751.537 57.9395 750.873C61.2044 750.154 64.3864 749.158 67.4854 747.885V758.593C66.5446 759.146 65.2995 759.7 63.75 760.253C62.2559 760.806 60.5957 761.277 58.7695 761.664C56.9434 762.107 55.0065 762.439 52.959 762.66C50.9115 762.937 48.8639 763.075 46.8164 763.075C41.5039 763.075 36.4681 762.273 31.709 760.668C27.0052 759.063 22.8825 756.601 19.3408 753.28C15.7992 749.96 13.0046 745.754 10.957 740.663C8.90951 735.572 7.88574 729.54 7.88574 722.567C7.88574 717.366 8.41146 712.689 9.46289 708.539C10.5697 704.389 12.0638 700.736 13.9453 697.582C15.8268 694.428 18.0127 691.744 20.5029 689.53C23.0485 687.317 25.7324 685.518 28.5547 684.135C31.4323 682.696 34.3929 681.672 37.4365 681.063C40.4801 680.399 43.4408 680.067 46.3184 680.067Z" fill="#44916C"/>
<path d="M253.312 721.654C253.312 716.785 252.703 712.468 251.485 708.705C250.323 704.887 248.663 701.677 246.505 699.076C244.402 696.42 241.884 694.428 238.951 693.1C236.018 691.716 232.809 691.024 229.322 691.024C225.836 691.024 222.626 691.716 219.693 693.1C216.76 694.428 214.215 696.42 212.057 699.076C209.954 701.677 208.294 704.887 207.076 708.705C205.914 712.468 205.333 716.785 205.333 721.654C205.333 726.469 205.914 730.785 207.076 734.604C208.294 738.367 209.981 741.549 212.14 744.149C214.298 746.75 216.843 748.743 219.776 750.126C222.709 751.454 225.919 752.118 229.405 752.118C232.892 752.118 236.074 751.454 238.951 750.126C241.884 748.743 244.402 746.75 246.505 744.149C248.663 741.549 250.323 738.367 251.485 734.604C252.703 730.785 253.312 726.469 253.312 721.654ZM266.759 721.654C266.759 727.852 265.873 733.497 264.103 738.588C262.332 743.679 259.814 748.051 256.549 751.703C253.339 755.3 249.438 758.095 244.845 760.087C240.252 762.079 235.105 763.075 229.405 763.075C223.539 763.075 218.282 762.079 213.634 760.087C209.041 758.095 205.112 755.3 201.847 751.703C198.637 748.051 196.174 743.679 194.459 738.588C192.743 733.497 191.886 727.852 191.886 721.654C191.886 715.401 192.771 709.729 194.542 704.638C196.313 699.547 198.803 695.175 202.013 691.522C205.278 687.87 209.207 685.048 213.8 683.056C218.448 681.063 223.622 680.067 229.322 680.067C235.133 680.067 240.362 681.063 245.011 683.056C249.659 685.048 253.588 687.87 256.798 691.522C260.007 695.175 262.47 699.547 264.186 704.638C265.901 709.729 266.759 715.401 266.759 721.654Z" fill="#44916C"/>
<path d="M427.745 763.075C423.65 763.075 419.97 762.632 416.705 761.747C413.44 760.862 410.562 759.617 408.072 758.012C405.637 756.407 403.562 754.498 401.847 752.284C400.131 750.015 398.775 747.553 397.779 744.896C397.005 742.904 396.451 740.718 396.119 738.339C395.787 735.959 395.621 733.358 395.621 730.536V682.143H408.487V730.453C408.487 734.825 409.068 738.477 410.23 741.41C411.559 744.73 413.689 747.359 416.622 749.296C419.61 751.177 423.401 752.118 427.994 752.118C432.864 752.118 436.765 751.067 439.698 748.964C442.687 746.861 444.817 744.039 446.09 740.497C447.031 737.785 447.501 734.438 447.501 730.453V682.143H460.367V730.619C460.367 733.275 460.201 735.766 459.869 738.09C459.592 740.359 459.122 742.462 458.458 744.398C457.462 747.11 456.078 749.628 454.308 751.952C452.592 754.221 450.462 756.186 447.916 757.846C445.37 759.506 442.41 760.779 439.034 761.664C435.714 762.605 431.951 763.075 427.745 763.075Z" fill="#44916C"/>
<path d="M605.902 693.1H606.151C607.59 691.273 609.167 689.586 610.883 688.036C612.654 686.431 614.618 685.048 616.776 683.886C618.935 682.668 621.286 681.728 623.832 681.063C626.433 680.399 629.255 680.067 632.299 680.067C635.896 680.067 639.271 680.565 642.426 681.562C645.58 682.558 648.319 684.162 650.644 686.376C652.968 688.59 654.794 691.495 656.122 695.092C657.506 698.633 658.197 703.005 658.197 708.207V761H645.331V710.282C645.331 703.476 644.003 698.578 641.347 695.59C638.746 692.602 634.927 691.107 629.892 691.107C625.465 691.107 621.176 692.353 617.025 694.843C612.875 697.278 609.306 700.653 606.317 704.97V761H593.451V682.143H603.412L605.902 693.1Z" fill="#44916C"/>
<path d="M835.038 761.166C833.931 761.609 832.243 762.024 829.975 762.411C827.706 762.799 824.994 763.02 821.84 763.075C817.689 763.075 814.092 762.549 811.049 761.498C808.005 760.502 805.46 759.063 803.412 757.182C801.42 755.245 799.926 752.921 798.93 750.209C797.934 747.497 797.436 744.481 797.436 741.161V693.183H782.245V682.143H797.436V660.561H810.302V682.143H833.876V693.183H810.302V739.169C810.302 740.995 810.551 742.683 811.049 744.232C811.602 745.782 812.432 747.138 813.539 748.3C814.701 749.407 816.168 750.292 817.938 750.956C819.709 751.565 821.84 751.869 824.33 751.869C826.046 751.869 827.844 751.731 829.726 751.454C831.662 751.177 833.433 750.818 835.038 750.375V761.166Z" fill="#44916C"/>
<path d="M1164.31 721.654C1164.31 716.785 1163.7 712.468 1162.49 708.705C1161.32 704.887 1159.66 701.677 1157.5 699.076C1155.4 696.42 1152.88 694.428 1149.95 693.1C1147.02 691.716 1143.81 691.024 1140.32 691.024C1136.84 691.024 1133.63 691.716 1130.69 693.1C1127.76 694.428 1125.21 696.42 1123.06 699.076C1120.95 701.677 1119.29 704.887 1118.08 708.705C1116.91 712.468 1116.33 716.785 1116.33 721.654C1116.33 726.469 1116.91 730.785 1118.08 734.604C1119.29 738.367 1120.98 741.549 1123.14 744.149C1125.3 746.75 1127.84 748.743 1130.78 750.126C1133.71 751.454 1136.92 752.118 1140.41 752.118C1143.89 752.118 1147.07 751.454 1149.95 750.126C1152.88 748.743 1155.4 746.75 1157.5 744.149C1159.66 741.549 1161.32 738.367 1162.49 734.604C1163.7 730.785 1164.31 726.469 1164.31 721.654ZM1177.76 721.654C1177.76 727.852 1176.87 733.497 1175.1 738.588C1173.33 743.679 1170.81 748.051 1167.55 751.703C1164.34 755.3 1160.44 758.095 1155.84 760.087C1151.25 762.079 1146.11 763.075 1140.41 763.075C1134.54 763.075 1129.28 762.079 1124.63 760.087C1120.04 758.095 1116.11 755.3 1112.85 751.703C1109.64 748.051 1107.17 743.679 1105.46 738.588C1103.74 733.497 1102.89 727.852 1102.89 721.654C1102.89 715.401 1103.77 709.729 1105.54 704.638C1107.31 699.547 1109.8 695.175 1113.01 691.522C1116.28 687.87 1120.21 685.048 1124.8 683.056C1129.45 681.063 1134.62 680.067 1140.32 680.067C1146.13 680.067 1151.36 681.063 1156.01 683.056C1160.66 685.048 1164.59 687.87 1167.8 691.522C1171.01 695.175 1173.47 699.547 1175.19 704.638C1176.9 709.729 1177.76 715.401 1177.76 721.654Z" fill="#44916C"/>
<path d="M1321.9 693.1H1322.15C1323.59 691.273 1325.17 689.586 1326.88 688.036C1328.65 686.431 1330.62 685.048 1332.78 683.886C1334.93 682.668 1337.29 681.728 1339.83 681.063C1342.43 680.399 1345.26 680.067 1348.3 680.067C1351.9 680.067 1355.27 680.565 1358.43 681.562C1361.58 682.558 1364.32 684.162 1366.64 686.376C1368.97 688.59 1370.79 691.495 1372.12 695.092C1373.51 698.633 1374.2 703.005 1374.2 708.207V761H1361.33V710.282C1361.33 703.476 1360 698.578 1357.35 695.59C1354.75 692.602 1350.93 691.107 1345.89 691.107C1341.46 691.107 1337.18 692.353 1333.03 694.843C1328.88 697.278 1325.31 700.653 1322.32 704.97V761H1309.45V682.143H1319.41L1321.9 693.1Z" fill="#44916C"/>
<path d="M1684.75 763.075C1680.65 763.075 1676.97 762.632 1673.71 761.747C1670.44 760.862 1667.56 759.617 1665.07 758.012C1662.64 756.407 1660.56 754.498 1658.85 752.284C1657.13 750.015 1655.78 747.553 1654.78 744.896C1654 742.904 1653.45 740.718 1653.12 738.339C1652.79 735.959 1652.62 733.358 1652.62 730.536V682.143H1665.49V730.453C1665.49 734.825 1666.07 738.477 1667.23 741.41C1668.56 744.73 1670.69 747.359 1673.62 749.296C1676.61 751.177 1680.4 752.118 1684.99 752.118C1689.86 752.118 1693.77 751.067 1696.7 748.964C1699.69 746.861 1701.82 744.039 1703.09 740.497C1704.03 737.785 1704.5 734.438 1704.5 730.453V682.143H1717.37V730.619C1717.37 733.275 1717.2 735.766 1716.87 738.09C1716.59 740.359 1716.12 742.462 1715.46 744.398C1714.46 747.11 1713.08 749.628 1711.31 751.952C1709.59 754.221 1707.46 756.186 1704.92 757.846C1702.37 759.506 1699.41 760.779 1696.03 761.664C1692.71 762.605 1688.95 763.075 1684.75 763.075Z" fill="#44916C"/>
<path d="M1861.75 703.144C1861.75 705.302 1862.22 707.073 1863.16 708.456C1864.1 709.84 1865.35 710.974 1866.9 711.859C1868.5 712.689 1870.33 713.381 1872.38 713.935C1874.48 714.488 1876.64 714.986 1878.85 715.429C1881.9 716.093 1884.77 716.84 1887.48 717.67C1890.2 718.445 1892.69 719.634 1894.96 721.239C1897.28 722.844 1899.13 725.03 1900.52 727.797C1901.96 730.508 1902.67 734.05 1902.67 738.422C1902.67 742.406 1901.9 745.948 1900.35 749.047C1898.8 752.09 1896.62 754.664 1893.79 756.767C1890.97 758.814 1887.6 760.364 1883.67 761.415C1879.74 762.522 1875.42 763.075 1870.72 763.075C1867.84 763.075 1865.21 762.909 1862.83 762.577C1860.51 762.3 1858.43 761.913 1856.61 761.415C1854.83 760.972 1853.31 760.502 1852.04 760.004C1850.77 759.506 1849.72 759.035 1848.89 758.593V747.802C1852.21 749.13 1855.5 750.181 1858.76 750.956C1862.03 751.731 1865.63 752.118 1869.55 752.118C1872.65 752.118 1875.45 751.841 1877.94 751.288C1880.43 750.735 1882.56 749.932 1884.33 748.881C1886.16 747.774 1887.54 746.418 1888.48 744.813C1889.48 743.153 1889.97 741.244 1889.97 739.086C1889.97 736.872 1889.53 735.046 1888.65 733.607C1887.76 732.169 1886.57 730.979 1885.08 730.038C1883.58 729.097 1881.84 728.323 1879.85 727.714C1877.91 727.105 1875.86 726.552 1873.71 726.054C1870.88 725.445 1868.01 724.726 1865.07 723.896C1862.19 723.065 1859.57 721.903 1857.19 720.409C1854.81 718.915 1852.87 716.895 1851.38 714.35C1849.94 711.749 1849.22 708.428 1849.22 704.389C1849.22 700.238 1849.96 696.641 1851.46 693.598C1852.95 690.554 1854.97 688.036 1857.52 686.044C1860.06 684.052 1863.02 682.558 1866.4 681.562C1869.78 680.565 1873.35 680.067 1877.11 680.067C1881.48 680.067 1885.52 680.482 1889.23 681.312C1892.99 682.143 1896.39 683.194 1899.44 684.467V695.424C1896.12 694.151 1892.74 693.127 1889.31 692.353C1885.93 691.522 1882.45 691.08 1878.85 691.024C1875.81 691.024 1873.21 691.329 1871.05 691.938C1868.89 692.546 1867.12 693.404 1865.74 694.511C1864.35 695.562 1863.33 696.835 1862.67 698.329C1862.06 699.768 1861.75 701.373 1861.75 703.144Z" fill="#44916C"/>
<line x1="2.5" y1="590.5" x2="1923.5" y2="590.5" stroke="#44916C" stroke-width="5" stroke-linecap="round"/>
</svg>
